<svg width="41" height="31" viewBox="0 0 41 31" fill="none" xmlns="http://www.w3.org/2000/svg">
<path d="M2.1665 10.834C2.1665 5.41083 6.849 1.17323 12.2453 1.71286L19.4053 2.42886C20.1332 2.50165 20.8665 2.50165 21.5944 2.42886L28.7544 1.71286C34.1507 1.17323 38.8332 5.41083 38.8332 10.834V21.8331C38.8332 28.4207 30.224 30.9176 26.6993 25.3523C24.187 21.3856 18.4471 21.2531 15.7544 25.0997L15.2333 25.8441C11.2062 31.5972 2.1665 28.7477 2.1665 21.7252V10.834Z" stroke="white" stroke-width="3"/>
<circle cx="31.4998" cy="10.7886" r="1.5" fill="white" stroke="white" stroke-width="0.666667"/>
<circle cx="27.8333" cy="16.2886" r="1.5" fill="white" stroke="white" stroke-width="0.666667"/>
<path d="M13.1665 17.2049L13.1665 9.87161" stroke="white" stroke-width="3" stroke-linecap="round" stroke-linejoin="round"/>
<path d="M9.49967 13.5387L16.833 13.5387" stroke="white" stroke-width="3" stroke-linecap="round" stroke-linejoin="round"/>
</svg>
