<svg width="45" height="45" viewBox="0 0 45 45" fill="none" xmlns="http://www.w3.org/2000/svg">
<path d="M44.5 22.5C44.5 34.6503 34.6503 44.5 22.5 44.5C10.3497 44.5 0.5 34.6503 0.5 22.5C0.5 10.3497 10.3497 0.5 22.5 0.5C34.6503 0.5 44.5 10.3497 44.5 22.5ZM4.724 22.5C4.724 32.3174 12.6826 40.276 22.5 40.276C32.3174 40.276 40.276 32.3174 40.276 22.5C40.276 12.6826 32.3174 4.724 22.5 4.724C12.6826 4.724 4.724 12.6826 4.724 22.5Z" fill="white" fill-opacity="0.4"/>
<path d="M44.5 22.5C44.5 25.8745 43.7237 29.2038 42.2312 32.2304C40.7387 35.2569 38.5699 37.8995 35.8927 39.9538C33.2156 42.0081 30.1017 43.4189 26.792 44.0773C23.4823 44.7356 20.0655 44.6238 16.806 43.7504C13.5464 42.877 10.5315 41.2655 7.99439 39.0405C5.45729 36.8155 3.46603 34.0367 2.17465 30.919C0.883274 27.8014 0.326399 24.4284 0.547104 21.0611C0.767808 17.6938 1.76018 14.4224 3.44744 11.5L7.10553 13.612C5.74222 15.9733 4.94039 18.6166 4.76206 21.3374C4.58373 24.0582 5.03368 26.7835 6.07712 29.3026C7.12055 31.8216 8.72949 34.0669 10.7795 35.8647C12.8294 37.6625 15.2655 38.9646 17.8992 39.6703C20.5329 40.376 23.2937 40.4664 25.9679 39.9344C28.6422 39.4025 31.1582 38.2625 33.3213 36.6026C35.4845 34.9428 37.2369 32.8076 38.4428 30.3621C39.6488 27.9167 40.276 25.2266 40.276 22.5H44.5Z" fill="white"/>
</svg>
