<svg width="34" height="34" viewBox="0 0 34 34" fill="none" xmlns="http://www.w3.org/2000/svg">
<path fill-rule="evenodd" clip-rule="evenodd" d="M28.0771 19.4286C28.0771 19.4286 28.0771 19.4286 28.0771 19.4285H34C32.8156 27.667 25.6944 34 17.0865 34C7.6499 34 0 26.3888 0 17C0 7.61116 7.6499 0 17.0865 0C25.3528 0 32.2481 5.84037 33.8312 13.6H27.8127C26.3661 9.10581 22.128 5.82857 17.0865 5.82857C10.841 5.82857 5.82857 10.8581 5.82857 17C5.82857 23.1419 10.841 28.1714 17.0865 28.1714C20.0154 28.1714 22.6731 27.0653 24.6698 25.2572H18.5511V19.4286H28.0771Z" fill="url(#paint0_linear_2023_1676)"/>
<defs>
<linearGradient id="paint0_linear_2023_1676" x1="-1.95275" y1="5.82857" x2="36.5242" y2="26.8783" gradientUnits="userSpaceOnUse">
<stop stop-color="#FFE4AF"/>
<stop offset="1" stop-color="#FFD074"/>
</linearGradient>
</defs>
</svg>
